<?xml version="1.0" encoding="utf-8"?>
<!-- Generator: Adobe Illustrator 24.1.1, SVG Export Plug-In . SVG Version: 6.00 Build 0)  -->
<svg version="1.1" id="Layer_1" xmlns="http://www.w3.org/2000/svg" xmlns:xlink="http://www.w3.org/1999/xlink" x="0px" y="0px"
	 viewBox="0 0 16 16" style="enable-background:new 0 0 16 16;" xml:space="preserve">
<path d="M10.6,8l4.9-4.9c0.5-0.5,0.5-1.4,0-2l-0.7-0.7c-0.5-0.5-1.4-0.5-2,0L8,5.4l-4.9-5c-0.5-0.5-1.4-0.5-2,0L0.4,1.1
	c-0.5,0.5-0.5,1.4,0,2l5,5L0.4,13c-0.5,0.5-0.5,1.4,0,2l0.7,0.7c0.5,0.5,1.4,0.5,2,0L8,10.6l4.9,4.9c0.5,0.5,1.4,0.5,2,0l0.7-0.7
	c0.5-0.5,0.5-1.4,0-2L10.6,8z"/>
</svg>
