<?xml version="1.0" encoding="utf-8"?>
<!-- Generator: Adobe Illustrator 24.1.2, SVG Export Plug-In . SVG Version: 6.00 Build 0)  -->
<svg version="1.1" id="Layer_1" xmlns="http://www.w3.org/2000/svg" x="0px" y="0px"
	 viewBox="0 0 16 16" style="enable-background:new 0 0 16 16;" xml:space="preserve">
<path d="M9.9,2.7l-8.8,8.8c0,0-0.1,0.1-0.1,0.2l-1,3.9c0,0.1,0,0.2,0.1,0.3C0.2,16,0.3,16,0.3,16c0,0,0.1,0,0.1,0l3.9-1
	c0.1,0,0.1,0,0.2-0.1l8.8-8.8L9.9,2.7z M15.5,1.5l-1-1c-0.7-0.7-1.8-0.7-2.5,0l-1.2,1.2l3.4,3.4l1.2-1.2C15.8,3.6,16,3.2,16,2.7
	S15.8,1.8,15.5,1.5z"/>
</svg>
