<?xml version="1.0" encoding="utf-8"?>
<!-- Generator: Adobe Illustrator 24.1.1, SVG Export Plug-In . SVG Version: 6.00 Build 0)  -->
<svg version="1.1" id="Capa_1" xmlns="http://www.w3.org/2000/svg" xmlns:xlink="http://www.w3.org/1999/xlink" x="0px" y="0px"
	 viewBox="0 0 20 16" style="enable-background:new 0 0 20 16;" xml:space="preserve">
<style type="text/css">
	.st0{fill:#101010;}
</style>
<path class="st0" d="M18.2,4.5h-14C3.4,4.5,2.8,5,2.6,5.9l0,0l-2.4,8.7c0,0.1,0,0.2,0,0.3C0.5,15.5,1.1,16,1.7,16h14.2
	c0.7,0,1.4-0.5,1.6-1.3l0,0L20,6.8c0,0,0,0,0-0.1c0-0.2,0-0.3,0-0.5C19.9,5.2,19.3,4.5,18.2,4.5z M0.4,9.2C0.4,9.3,0.4,9.3,0.4,9.2
	c0.2,0,0.4-0.1,0.5-0.3l0.9-3.3l0,0c0.2-1.2,1.2-2,2.4-2H17c0.1,0,0.3-0.1,0.3-0.2c0.1-0.1,0.1-0.3,0.1-0.4
	c-0.2-0.7-0.9-1.2-1.6-1.2H8L6.4,0.1C6.4,0,6.4,0,6.2,0H1.7C0.7,0,0,0.7,0,1.8v7C0,9,0.2,9.2,0.4,9.2z"/>
</svg>
