<?xml version="1.0" encoding="utf-8"?>
<!-- Generator: Adobe Illustrator 24.1.1, SVG Export Plug-In . SVG Version: 6.00 Build 0)  -->
<svg version="1.1" id="Layer_1" xmlns="http://www.w3.org/2000/svg" xmlns:xlink="http://www.w3.org/1999/xlink" x="0px" y="0px"
	 viewBox="0 0 16 16" style="enable-background:new 0 0 16 16;" xml:space="preserve">
<path d="M15.2,2L14,0.8C13.5,0.3,12.8,0,12.1,0H1.8C0.8,0,0,0.8,0,1.8v12.3c0,1,0.8,1.8,1.8,1.8h12.3c1,0,1.8-0.8,1.8-1.8V3.9
	C16,3.2,15.7,2.5,15.2,2z M2.6,4.2V2.5C2.6,2.2,2.9,2,3.1,2h7c0.2,0,0.5,0.2,0.5,0.5v1.7c0,0.2-0.2,0.5-0.5,0.5h-7
	C2.9,4.6,2.6,4.5,2.6,4.2z M8,13.4c-1.7,0-3-1.4-3-3s1.4-3,3-3s3,1.4,3,3S9.7,13.4,8,13.4z"/>
</svg>
